<svg xmlns="http://www.w3.org/2000/svg" xmlns:xlink="http://www.w3.org/1999/xlink" width="0" height="0" style="display:none;"><symbol viewBox="0 0 24 24" id="facebook-circle-fill"><path d="M12.001 2C6.47813 2 2.00098 6.47715 2.00098 12C2.00098 16.9913 5.65783 21.1283 10.4385 21.8785V14.8906H7.89941V12H10.4385V9.79688C10.4385 7.29063 11.9314 5.90625 14.2156 5.90625C15.3097 5.90625 16.4541 6.10156 16.4541 6.10156V8.5625H15.1931C13.9509 8.5625 13.5635 9.33334 13.5635 10.1242V12H16.3369L15.8936 14.8906H13.5635V21.8785C18.3441 21.1283 22.001 16.9913 22.001 12C22.001 6.47715 17.5238 2 12.001 2Z"></path></symbol><symbol viewBox="0 0 24 24" id="twitter-fill"><path d="M22.2125 5.65605C21.4491 5.99375 20.6395 6.21555 19.8106 6.31411C20.6839 5.79132 21.3374 4.9689 21.6493 4.00005C20.8287 4.48761 19.9305 4.83077 18.9938 5.01461C18.2031 4.17106 17.098 3.69303 15.9418 3.69434C13.6326 3.69434 11.7597 5.56661 11.7597 7.87683C11.7597 8.20458 11.7973 8.52242 11.8676 8.82909C8.39047 8.65404 5.31007 6.99005 3.24678 4.45941C2.87529 5.09767 2.68005 5.82318 2.68104 6.56167C2.68104 8.01259 3.4196 9.29324 4.54149 10.043C3.87737 10.022 3.22788 9.84264 2.64718 9.51973C2.64654 9.5373 2.64654 9.55487 2.64654 9.57148C2.64654 11.5984 4.08819 13.2892 6.00199 13.6731C5.6428 13.7703 5.27232 13.8194 4.90022 13.8191C4.62997 13.8191 4.36771 13.7942 4.11279 13.7453C4.64531 15.4065 6.18886 16.6159 8.0196 16.6491C6.53813 17.8118 4.70869 18.4426 2.82543 18.4399C2.49212 18.4402 2.15909 18.4205 1.82812 18.3811C3.74004 19.6102 5.96552 20.2625 8.23842 20.2601C15.9316 20.2601 20.138 13.8875 20.138 8.36111C20.138 8.1803 20.1336 7.99886 20.1256 7.81997C20.9443 7.22845 21.651 6.49567 22.2125 5.65605Z"></path></symbol><symbol viewBox="0 0 24 24" id="pinterest-fill"><path d="M13.3717 2.09442C8.42512 1.41268 3.73383 4.48505 2.38064 9.29256C1.02745 14.1001 3.42711 19.1692 8.00271 21.1689C7.94264 20.4008 7.99735 19.628 8.16502 18.8761C8.34964 18.0374 9.46121 13.4132 9.46121 13.4132C9.23971 12.9173 9.12893 12.379 9.13659 11.8359C9.13659 10.3509 9.99353 9.24295 11.0597 9.24295C11.4472 9.23718 11.8181 9.40028 12.0758 9.68981C12.3335 9.97934 12.4526 10.3667 12.402 10.751C12.402 11.6512 11.8236 13.0131 11.5228 14.2903C11.4014 14.7656 11.5131 15.2703 11.8237 15.65C12.1343 16.0296 12.6069 16.2389 13.0967 16.2139C14.9944 16.2139 16.2675 13.7825 16.2675 10.9126C16.2675 8.71205 14.8098 7.0655 12.1243 7.0655C10.826 7.01531 9.56388 7.4996 8.63223 8.40543C7.70057 9.31126 7.18084 10.5595 7.19423 11.859C7.16563 12.5722 7.39566 13.2717 7.84194 13.8287C8.01361 13.9564 8.07985 14.1825 8.00425 14.3827C7.9581 14.5673 7.84194 15.0059 7.79578 15.1675C7.77632 15.278 7.70559 15.3728 7.60516 15.4228C7.50473 15.4729 7.38651 15.4724 7.28654 15.4214C5.9019 14.8674 5.24957 13.3439 5.24957 11.6051C5.24957 8.75822 7.63424 5.3497 12.4036 5.3497C16.1998 5.3497 18.723 8.1273 18.723 11.0972C18.723 15.0059 16.5468 17.9451 13.3298 17.9451C12.3526 17.9761 11.4273 17.5061 10.8759 16.6986C10.8759 16.6986 10.2974 19.0146 10.1835 19.4531C9.95101 20.2099 9.60779 20.9281 9.16505 21.5844C10.0877 21.8643 11.0471 22.0044 12.0113 22C14.6636 22.0017 17.2078 20.9484 19.0829 19.072C20.958 17.1957 22.0099 14.6504 22.0069 11.9975C22.004 7.00306 18.3183 2.77616 13.3717 2.09442Z"></path></symbol><symbol viewBox="0 0 24 24" id="github-fill"><path d="M12.001 2C6.47598 2 2.00098 6.475 2.00098 12C2.00098 16.425 4.86348 20.1625 8.83848 21.4875C9.33848 21.575 9.52598 21.275 9.52598 21.0125C9.52598 20.775 9.51348 19.9875 9.51348 19.15C7.00098 19.6125 6.35098 18.5375 6.15098 17.975C6.03848 17.6875 5.55098 16.8 5.12598 16.5625C4.77598 16.375 4.27598 15.9125 5.11348 15.9C5.90098 15.8875 6.46348 16.625 6.65098 16.925C7.55098 18.4375 8.98848 18.0125 9.56348 17.75C9.65098 17.1 9.91348 16.6625 10.201 16.4125C7.97598 16.1625 5.65098 15.3 5.65098 11.475C5.65098 10.3875 6.03848 9.4875 6.67598 8.7875C6.57598 8.5375 6.22598 7.5125 6.77598 6.1375C6.77598 6.1375 7.61348 5.875 9.52598 7.1625C10.326 6.9375 11.176 6.825 12.026 6.825C12.876 6.825 13.726 6.9375 14.526 7.1625C16.4385 5.8625 17.276 6.1375 17.276 6.1375C17.826 7.5125 17.476 8.5375 17.376 8.7875C18.0135 9.4875 18.401 10.375 18.401 11.475C18.401 15.3125 16.0635 16.1625 13.8385 16.4125C14.201 16.725 14.5135 17.325 14.5135 18.2625C14.5135 19.6 14.501 20.675 14.501 21.0125C14.501 21.275 14.6885 21.5875 15.1885 21.4875C19.259 20.1133 21.9999 16.2963 22.001 12C22.001 6.475 17.526 2 12.001 2Z"></path></symbol><symbol viewBox="0 0 24 24" id="behance-fill"><path d="M7.44262 5.3501C8.08197 5.3501 8.67213 5.39957 9.21311 5.54798C9.7541 5.64692 10.1967 5.8448 10.5902 6.09215C10.9836 6.3395 11.2787 6.68579 11.4754 7.13102C11.6721 7.57625 11.7705 8.12042 11.7705 8.71406C11.7705 9.40664 11.623 10.0003 11.2787 10.4455C10.9836 10.8907 10.4918 11.2865 9.90164 11.5833C10.7377 11.8307 11.377 12.2759 11.7705 12.8695C12.1639 13.4632 12.4098 14.2052 12.4098 15.0462C12.4098 15.7388 12.2623 16.3324 12.0164 16.8271C11.7705 17.3218 11.377 17.7671 10.9344 18.0639C10.4918 18.3607 9.95082 18.608 9.36066 18.7565C8.77049 18.9049 8.18033 19.0038 7.59016 19.0038H1V5.3501H7.44262ZM7.04918 10.8907C7.59016 10.8907 8.03279 10.7423 8.37705 10.495C8.72131 10.2476 8.86885 9.80239 8.86885 9.25822C8.86885 8.96141 8.81967 8.66458 8.72131 8.4667C8.62295 8.26883 8.47541 8.12042 8.27869 7.97201C8.08197 7.87307 7.88525 7.77413 7.63934 7.72466C7.39344 7.67519 7.14754 7.67519 6.85246 7.67519H4V10.8907H7.04918ZM7.19672 16.7282C7.4918 16.7282 7.78689 16.6787 8.03279 16.6292C8.27869 16.5798 8.52459 16.4808 8.72131 16.3324C8.91803 16.184 9.06557 16.0356 9.21311 15.7883C9.31148 15.5409 9.40984 15.2441 9.40984 14.8978C9.40984 14.2052 9.21312 13.7105 8.81967 13.3642C8.42623 13.0674 7.88525 12.919 7.2459 12.919H4V16.7282H7.19672ZM16.6885 16.6787C17.082 17.0745 17.6721 17.2724 18.459 17.2724C19 17.2724 19.4918 17.1239 19.8852 16.8766C20.2787 16.5798 20.5246 16.283 20.623 15.9861H23.0328C22.6393 17.1734 22.0492 18.0144 21.2623 18.5586C20.4754 19.0533 19.541 19.3501 18.4098 19.3501C17.6229 19.3501 16.9344 19.2017 16.2951 18.9543C15.6557 18.707 15.1639 18.3607 14.7213 17.866C14.2787 17.4208 13.9344 16.8766 13.7377 16.2335C13.4918 15.5904 13.3934 14.8978 13.3934 14.1063C13.3934 13.3642 13.4918 12.6717 13.7377 12.0285C13.9836 11.3854 14.3279 10.8413 14.7705 10.3466C15.2131 9.90133 15.7541 9.50557 16.3443 9.25822C16.9836 9.01087 17.6229 8.86246 18.4098 8.86246C19.2459 8.86246 19.9836 9.01088 20.623 9.35716C21.2623 9.70345 21.7541 10.0992 22.1475 10.6929C22.541 11.237 22.8361 11.8801 23.0328 12.5727C23.1311 13.2653 23.1803 13.9579 23.1311 14.7494H16C16 15.5409 16.2951 16.283 16.6885 16.6787ZM19.7869 11.4844C19.4426 11.1381 18.9016 10.9402 18.2623 10.9402C17.8197 10.9402 17.4754 11.0391 17.1803 11.1876C16.8852 11.336 16.6885 11.5338 16.4918 11.7317C16.2951 11.9296 16.1967 12.177 16.1475 12.4243C16.0984 12.6717 16.0492 12.8695 16.0492 13.0674H20.4754C20.3771 12.3254 20.1311 11.8307 19.7869 11.4844ZM15.459 6.29003H20.9672V7.62572H15.459V6.29003Z"></path></symbol><symbol viewBox="0 0 24 24" id="tiktok-fill"><path d="M16 8.24537V15.5C16 19.0899 13.0899 22 9.5 22C5.91015 22 3 19.0899 3 15.5C3 11.9101 5.91015 9 9.5 9C10.0163 9 10.5185 9.06019 11 9.17393V12.3368C10.5454 12.1208 10.0368 12 9.5 12C7.567 12 6 13.567 6 15.5C6 17.433 7.567 19 9.5 19C11.433 19 13 17.433 13 15.5V2H16C16 4.76142 18.2386 7 21 7V10C19.1081 10 17.3696 9.34328 16 8.24537Z"></path></symbol><symbol viewBox="0 0 24 24" id="slack-line"><path d="M14.501 3C15.3294 3 16.001 3.67157 16.001 4.5V9.5C16.001 10.3284 15.3294 11 14.501 11C13.6725 11 13.001 10.3284 13.001 9.5V4.5C13.001 3.67157 13.6725 3 14.501 3ZM4.50098 13H6.00098V14.5C6.00098 15.3284 5.3294 16 4.50098 16C3.67255 16 3.00098 15.3284 3.00098 14.5C3.00098 13.6716 3.67255 13 4.50098 13ZM13.001 18H14.501C15.3294 18 16.001 18.6716 16.001 19.5C16.001 20.3284 15.3294 21 14.501 21C13.6725 21 13.001 20.3284 13.001 19.5V18ZM14.501 13H19.501C20.3294 13 21.001 13.6716 21.001 14.5C21.001 15.3284 20.3294 16 19.501 16H14.501C13.6725 16 13.001 15.3284 13.001 14.5C13.001 13.6716 13.6725 13 14.501 13ZM19.501 8C20.3294 8 21.001 8.67157 21.001 9.5C21.001 10.3284 20.3294 11 19.501 11H18.001V9.5C18.001 8.67157 18.6725 8 19.501 8ZM4.50098 8H9.50098C10.3294 8 11.001 8.67157 11.001 9.5C11.001 10.3284 10.3294 11 9.50098 11H4.50098C3.67255 11 3.00098 10.3284 3.00098 9.5C3.00098 8.67157 3.67255 8 4.50098 8ZM9.50098 3C10.3294 3 11.001 3.67157 11.001 4.5V6H9.50098C8.67255 6 8.00098 5.32843 8.00098 4.5C8.00098 3.67157 8.67255 3 9.50098 3ZM9.50098 13C10.3294 13 11.001 13.6716 11.001 14.5V19.5C11.001 20.3284 10.3294 21 9.50098 21C8.67255 21 8.00098 20.3284 8.00098 19.5V14.5C8.00098 13.6716 8.67255 13 9.50098 13Z"></path></symbol></svg>