<svg width="30" height="30" viewBox="0 0 30 30" fill="none" xmlns="http://www.w3.org/2000/svg">
<path d="M19.375 17.5L25.625 23.75L23.75 25.625L17.5 19.375V18.3875L17.1625 18.0375C15.6925 19.3048 13.8159 20.0014 11.875 20C9.72012 20 7.65349 19.144 6.12976 17.6202C4.60602 16.0965 3.75 14.0299 3.75 11.875C3.75 9.72012 4.60602 7.65349 6.12976 6.12976C7.65349 4.60602 9.72012 3.75 11.875 3.75C14.0299 3.75 16.0965 4.60602 17.6202 6.12976C19.144 7.65349 20 9.72012 20 11.875C20 13.8875 19.2625 15.7375 18.0375 17.1625L18.3875 17.5H19.375ZM11.875 17.5C15 17.5 17.5 15 17.5 11.875C17.5 8.75 15 6.25 11.875 6.25C8.75 6.25 6.25 8.75 6.25 11.875C6.25 15 8.75 17.5 11.875 17.5ZM15 12.5H12.5V15H11.25V12.5H8.75V11.25H11.25V8.75H12.5V11.25H15V12.5Z" fill="white"/>
</svg>
