<svg width="30" height="30" viewBox="0 0 30 30" fill="none" xmlns="http://www.w3.org/2000/svg">
<rect width="30" height="30" rx="15" fill="white"/>
<path d="M14.2663 7.58198C11.8313 7.86048 9.40499 9.87892 9.30485 12.7622C9.2419 14.5227 9.72975 15.8434 11.365 16.2142C12.0746 14.9316 11.1361 14.6487 10.9901 13.7208C10.3907 9.9185 15.2706 7.32546 17.8243 9.98006C19.5911 11.8182 18.428 17.4734 15.5782 16.8856C12.8485 16.3241 16.9144 11.8226 14.7355 10.9387C12.9644 10.2205 12.023 13.136 12.8628 14.5842C12.3707 17.0746 11.3106 19.4214 11.7398 22.5451C13.1318 21.5102 13.601 19.5284 13.9859 17.4616C14.6855 17.897 15.0588 18.3499 15.9516 18.4203C19.2434 18.6812 21.0818 15.0533 20.6326 11.7068C20.2334 8.73998 17.3436 7.23018 14.2663 7.58198Z" fill="#2F0A4D"/>
</svg>
